<?xml version="1.0" encoding="utf-8"?>
<svg viewBox="40.546 40.546 418.908 418.908" xmlns="http://www.w3.org/2000/svg" xmlns:bx="https://greentree.cf">
  <defs>
    <filter id="drop-shadow-filter-0" x="-500%" y="-500%" width="1000%" height="1000%" bx:preset="drop-shadow 1 0 0 20 1 rgba(255,233,135,1)">
      <feGaussianBlur in="SourceAlpha" stdDeviation="20"/>
      <feOffset dx="0" dy="0"/>
      <feComponentTransfer result="offsetblur">
        <feFuncA id="spread-ctrl" type="linear" slope="2"/>
      </feComponentTransfer>
      <feFlood flood-color="rgba(255,233,135,1)"/>
      <feComposite in2="offsetblur" operator="in"/>
      <feMerge>
        <feMergeNode/>
        <feMergeNode in="SourceGraphic"/>
      </feMerge>
    </filter>
    <filter id="drop-shadow-filter-2" x="-500%" y="-500%" width="1000%" height="1000%" bx:preset="drop-shadow 1 0 0 9 1 rgba(0,0,0,0.84)">
      <feGaussianBlur in="SourceAlpha" stdDeviation="9"/>
      <feOffset dx="0" dy="0"/>
      <feComponentTransfer result="offsetblur">
        <feFuncA id="spread-ctrl" type="linear" slope="2"/>
      </feComponentTransfer>
      <feFlood flood-color="rgba(0,0,0,0.84)"/>
      <feComposite in2="offsetblur" operator="in"/>
      <feMerge>
        <feMergeNode/>
        <feMergeNode in="SourceGraphic"/>
      </feMerge>
    </filter>
    <radialGradient gradientUnits="userSpaceOnUse" cx="250" cy="250" r="105.639" id="gradient-0" gradientTransform="matrix(1.759585, 0, 0, 1.706681, -189.896033, -176.670149)">
      <stop offset="0" style="stop-color: rgb(255, 255, 255);"/>
      <stop offset="1" style="stop-color: rgb(255, 250, 160);"/>
    </radialGradient>
    <filter id="drop-shadow-filter-1" x="-500%" y="-500%" width="1000%" height="1000%" bx:preset="drop-shadow 1 0 0 10 1 rgba(0,149,255,0.72)">
      <feGaussianBlur in="SourceAlpha" stdDeviation="10"/>
      <feOffset dx="0" dy="0"/>
      <feComponentTransfer result="offsetblur">
        <feFuncA id="spread-ctrl" type="linear" slope="2"/>
      </feComponentTransfer>
      <feFlood flood-color="rgba(0,149,255,0.72)"/>
      <feComposite in2="offsetblur" operator="in"/>
      <feMerge>
        <feMergeNode/>
        <feMergeNode in="SourceGraphic"/>
      </feMerge>
    </filter>
    <filter id="drop-shadow-filter-3" x="-500%" y="-500%" width="1000%" height="1000%" bx:preset="drop-shadow 1 0 0 40 1 rgba(0,106,255,1)">
      <feGaussianBlur in="SourceAlpha" stdDeviation="40"/>
      <feOffset dx="0" dy="0"/>
      <feComponentTransfer result="offsetblur">
        <feFuncA id="spread-ctrl" type="linear" slope="2"/>
      </feComponentTransfer>
      <feFlood flood-color="rgba(0,106,255,1)"/>
      <feComposite in2="offsetblur" operator="in"/>
      <feMerge>
        <feMergeNode/>
        <feMergeNode in="SourceGraphic"/>
      </feMerge>
    </filter>
    <filter id="filter-1" x="-500%" y="-500%" width="1000%" height="1000%" bx:preset="drop-shadow 1 0 0 20 1 rgba(255,255,255,1)">
      <feGaussianBlur in="SourceAlpha" stdDeviation="20"/>
      <feOffset dx="0" dy="0"/>
      <feComponentTransfer result="offsetblur">
        <feFuncA id="feFuncA-1" type="linear" slope="2"/>
      </feComponentTransfer>
      <feFlood flood-color="rgba(255,255,255,1)"/>
      <feComposite in2="offsetblur" operator="in"/>
      <feMerge>
        <feMergeNode/>
        <feMergeNode in="SourceGraphic"/>
      </feMerge>
    </filter>
    <radialGradient gradientUnits="userSpaceOnUse" cx="250" cy="250" r="105.639" id="gradient-1" gradientTransform="matrix(1.759585, 0, 0, 1.706681, -189.896027, -176.670151)">
      <stop offset="0" style="stop-color: rgb(255, 255, 255);"/>
      <stop offset="1" style="stop-color: rgb(255, 250, 160);"/>
    </radialGradient>
    <filter id="filter-2" x="-500%" y="-500%" width="1000%" height="1000%" bx:preset="drop-shadow 1 0 0 40 1 rgba(0,106,255,1)">
      <feGaussianBlur in="SourceAlpha" stdDeviation="40"/>
      <feOffset dx="0" dy="0"/>
      <feComponentTransfer result="offsetblur">
        <feFuncA id="feFuncA-2" type="linear" slope="2"/>
      </feComponentTransfer>
      <feFlood flood-color="rgba(0,106,255,1)"/>
      <feComposite in2="offsetblur" operator="in"/>
      <feMerge>
        <feMergeNode/>
        <feMergeNode in="SourceGraphic"/>
      </feMerge>
    </filter>
  </defs>
  <path d="M 326 244.938 L 354.612 338.442 L 449.895 316.469 L 383.225 388 L 449.895 459.531 L 354.612 437.558 L 326 531.062 L 297.388 437.558 L 202.105 459.531 L 268.775 388 L 202.105 316.469 L 297.388 338.442 Z" style="filter: none; visibility: hidden;" transform="matrix(1, 0.000018, -0.000018, 1, -75.993032, -138.005878)" bx:shape="star 326 388 143.062 143.062 0.4 6 1@6fdae2df"/>
  <g style="visibility: hidden;">
    <title>original star &amp; rect-cover</title>
    <path d="M 191.127 64.656 C 190.643 67.596 190.124 70.531 189.597 73.463 C 188.738 78.234 188.051 83.07 187.613 87.904 C 185.582 110.284 185.773 133.316 194.02 154.654 C 196.882 162.061 203.061 168.456 207.673 174.732 C 207.713 174.786 210.371 178.368 211.005 177.832 C 220.548 169.75 227.179 158.752 235.474 149.395 C 238.958 145.464 244.188 142.237 248.4 139.115 C 273.326 120.639 302.513 111.798 332.68 105.902 C 345.006 103.493 358.894 102.51 371.462 102.891 C 374.603 102.986 378.871 102.473 380.633 105.075 C 382.037 107.148 371.213 109.084 368.309 110.241 C 360.638 113.298 353.188 116.979 345.765 120.564 C 329.739 128.305 306.947 143.789 299.967 159.957 C 297.739 165.116 295.345 170.202 293.087 175.348 C 293.06 175.41 291.288 179.504 292.069 179.784 C 303.84 184.008 316.679 184.251 328.931 186.756 C 354.322 191.948 385.406 217.36 402.327 234.552 C 414.42 246.839 424.033 260.76 433.381 275.163 C 435.827 278.931 439.301 284.249 440.589 288.566 C 440.826 289.362 440.432 291.112 439.639 290.868 C 436.471 289.897 424.311 278.365 420.487 275.668 C 404.494 264.394 389.044 255.688 369.951 250.283 C 359.336 247.277 352.641 247.82 342.146 248.908 C 339.851 249.146 337.554 249.373 335.26 249.627 C 335.194 249.634 330.763 250.147 330.911 250.963 C 333.138 263.268 339.348 274.51 343.304 286.372 C 344.965 291.354 345.145 297.498 345.743 302.707 C 349.251 333.273 343.762 366.402 331.512 394.512 C 326.001 407.157 320.704 423.671 310.961 433.979 C 310.391 434.582 308.68 435.114 308.494 434.306 C 307.752 431.099 309.513 427.8 310.097 424.56 C 310.956 419.788 311.643 414.95 312.081 410.115 C 314.112 387.735 313.917 364.706 305.673 343.367 C 302.812 335.961 296.632 329.563 292.02 323.289 C 291.981 323.235 289.321 319.655 288.689 320.19 C 279.146 328.272 272.515 339.271 264.219 348.629 C 260.734 352.56 255.507 355.785 251.292 358.909 C 226.366 377.386 197.176 386.228 167.007 392.123 C 154.683 394.531 140.797 395.511 128.232 395.132 C 125.091 395.037 120.826 395.55 119.061 392.95 C 117.653 390.877 128.483 388.938 131.385 387.782 C 139.057 384.724 146.505 381.045 153.928 377.459 C 169.954 369.72 192.747 354.234 199.726 338.066 C 201.954 332.907 204.349 327.82 206.606 322.674 C 206.633 322.613 208.406 318.519 207.624 318.239 C 195.854 314.016 183.014 313.771 170.762 311.266 C 145.351 306.07 114.281 280.651 97.343 263.446 C 85.259 251.17 75.652 237.251 66.313 222.86 C 63.863 219.085 60.394 213.783 59.104 209.456 C 58.867 208.661 59.261 206.914 60.054 207.155 C 63.194 208.11 75.393 219.666 79.198 222.348 C 95.193 233.625 110.646 242.333 129.742 247.741 C 140.358 250.747 147.053 250.203 157.548 249.116 C 159.842 248.878 162.139 248.65 164.432 248.396 C 164.499 248.389 168.931 247.876 168.783 247.059 C 166.557 234.754 160.347 223.513 156.39 211.65 C 154.728 206.666 154.549 200.53 153.95 195.315 C 150.414 164.493 157.348 134.798 167.325 105.725 C 171.449 93.707 179.689 73.612 188.732 64.046 C 189.302 63.442 191.17 64.396 191.127 64.656 Z" style="" transform="matrix(-0.092404, 0.995722, -0.995722, -0.092404, 521.149866, 23.54029)"/>
    <path d="M 102.567 -17.092 L 307.626 -51.585 L 337.098 123.629 L 309.565 128.26 C 271.373 109.507 224.368 108.324 182.27 132.633 C 176.016 136.244 170.121 140.312 164.617 144.781 L 144.279 57.618 L 116.663 66.707 Z" style="fill: rgb(255, 255, 255);"/>
    <polygon style="fill: rgb(216, 216, 216); stroke: rgb(0, 0, 0);" points="162.688 13.597"/>
  </g>
  <path d="M 246.111 143.874 C 246.124 143.955 246.993 149.379 247.991 149.153 C 263.007 145.743 276.499 137.493 290.878 131.98 C 296.917 129.665 304.464 129.109 310.839 128.09 C 348.568 122.061 385.479 128.978 421.789 139.671 C 436.626 144.039 452.358 150.854 465.873 158.408 C 469.251 160.296 474.206 162.159 474.654 166.003 C 475.011 169.066 462.084 165.033 458.254 164.648 C 448.136 163.631 437.905 163.421 427.758 163.122 C 405.852 162.477 372.153 166.45 355.344 180.152 C 349.98 184.523 344.475 188.72 339.085 193.061 C 339.021 193.113 334.76 196.579 335.454 197.329 C 345.915 208.63 359.806 216.188 371.769 225.884 C 396.563 245.977 416.093 291.398 424.816 319.794 C 431.05 340.088 433.647 360.758 435.68 381.804 C 436.213 387.31 436.988 395.094 435.943 400.542 C 435.75 401.546 434.326 403.235 433.597 402.518 C 430.688 399.657 423.952 380.151 421.305 375.033 C 410.235 353.63 398.298 335.343 380.507 318.592 C 370.616 309.279 362.992 306.07 350.908 301.297 C 348.264 300.254 345.626 299.198 342.975 298.172 C 342.899 298.143 337.766 296.186 337.464 297.161 C 332.909 311.872 333.309 327.681 330.893 342.889 C 329.879 349.276 326.586 356.091 324.281 362.122 C 310.754 397.51 285.94 430.59 256.588 454.346 C 243.385 465.032 228.218 480.066 211.717 485.796 C 210.752 486.13 208.581 485.741 208.836 484.752 C 209.848 480.826 213.646 478.222 216.123 475.013 C 219.773 470.287 223.271 465.392 226.496 460.358 C 241.427 437.058 254.294 411.786 257.406 383.788 C 258.487 374.072 255.369 363.571 253.892 354.097 C 253.88 354.016 253.007 348.593 252.012 348.819 C 236.995 352.23 223.503 360.48 209.124 365.992 C 203.083 368.308 195.541 368.862 189.162 369.882 C 151.432 375.913 114.516 368.994 78.204 358.3 C 63.371 353.931 47.643 347.115 34.13 339.564 C 30.752 337.676 25.8 335.814 25.348 331.97 C 24.988 328.907 37.922 332.939 41.75 333.324 C 51.868 334.341 62.096 334.551 72.243 334.85 C 94.15 335.496 127.848 331.522 144.658 317.82 C 150.022 313.449 155.527 309.252 160.917 304.912 C 160.98 304.86 165.243 301.393 164.548 300.644 C 154.086 289.344 140.196 281.784 128.233 272.088 C 103.419 251.978 83.909 206.557 75.176 178.139 C 68.945 157.863 66.354 137.198 64.323 116.169 C 63.791 110.653 63.013 102.89 64.06 97.43 C 64.253 96.426 65.675 94.741 66.405 95.456 C 69.294 98.283 76.059 117.837 78.692 122.929 C 89.764 144.335 101.701 162.626 119.495 179.381 C 129.386 188.695 137.01 191.903 149.094 196.676 C 151.737 197.719 154.375 198.775 157.025 199.8 C 157.102 199.83 162.236 201.787 162.538 200.811 C 167.096 186.102 166.695 170.292 169.11 155.083 C 170.063 149.077 173.026 142.703 175.295 136.946 C 177.567 135.445 179.893 134.006 182.27 132.633 C 201.77 121.373 222.323 115.582 242.566 114.474 C 241.579 124.111 244.651 134.492 246.111 143.874 Z" style="visibility: hidden;" bx:origin="0.499 0.396">
    <title>star</title>
  </path>
  <g style="visibility: hidden;" transform="matrix(0.699275, 0.38639, -0.38639, 0.699275, 171.455643, -21.572859)">
    <title>original star &amp; rect-cover</title>
    <path d="M 177.538 21.928 C 176.942 25.549 176.303 29.163 175.653 32.774 C 174.596 38.649 173.75 44.604 173.21 50.556 C 170.709 78.116 170.945 106.478 181.1 132.755 C 184.625 141.876 192.234 149.751 197.913 157.479 C 197.962 157.545 201.235 161.957 202.016 161.296 C 213.767 151.344 221.933 137.801 232.148 126.278 C 236.438 121.438 242.878 117.464 248.065 113.619 C 278.76 90.868 314.701 79.98 351.85 72.72 C 367.029 69.753 384.131 68.543 399.607 69.012 C 403.475 69.129 408.731 68.497 410.901 71.701 C 412.63 74.254 399.301 76.638 395.725 78.063 C 386.278 81.828 377.104 86.36 367.963 90.775 C 348.228 100.307 320.161 119.375 311.566 139.285 C 308.823 145.638 305.874 151.901 303.094 158.238 C 303.061 158.314 300.879 163.355 301.841 163.7 C 316.335 168.902 332.146 169.201 347.233 172.286 C 378.5 178.679 416.778 209.972 437.615 231.143 C 452.507 246.274 464.345 263.416 475.856 281.152 C 478.868 285.792 483.146 292.341 484.732 297.657 C 485.024 298.637 484.539 300.792 483.562 300.492 C 479.661 299.296 464.687 285.095 459.978 281.775 C 440.284 267.891 421.258 257.171 397.747 250.514 C 384.675 246.813 376.43 247.482 363.507 248.821 C 360.68 249.114 357.852 249.394 355.027 249.707 C 354.946 249.716 349.489 250.347 349.671 251.352 C 352.414 266.505 360.061 280.348 364.932 294.956 C 366.978 301.091 367.2 308.656 367.936 315.071 C 372.256 352.709 365.497 393.505 350.411 428.121 C 343.625 443.693 337.102 464.028 325.104 476.722 C 324.402 477.464 322.296 478.12 322.066 477.125 C 321.153 473.175 323.322 469.113 324.04 465.123 C 325.098 459.246 325.944 453.289 326.484 447.335 C 328.985 419.775 328.745 391.417 318.593 365.14 C 315.07 356.02 307.46 348.141 301.78 340.416 C 301.732 340.35 298.456 335.941 297.678 336.6 C 285.927 346.553 277.761 360.096 267.545 371.619 C 263.253 376.46 256.817 380.431 251.627 384.278 C 220.932 407.032 184.986 417.92 147.835 425.179 C 132.659 428.144 115.56 429.351 100.087 428.884 C 96.219 428.767 90.967 429.399 88.793 426.197 C 87.06 423.645 100.396 421.257 103.97 419.833 C 113.417 416.068 122.589 411.537 131.73 407.122 C 151.465 397.591 179.532 378.522 188.127 358.612 C 190.87 352.259 193.819 345.996 196.599 339.659 C 196.632 339.584 198.815 334.542 197.853 334.197 C 183.358 328.997 167.547 328.696 152.46 325.611 C 121.168 319.212 82.907 287.91 62.051 266.724 C 47.17 251.607 35.34 234.467 23.839 216.745 C 20.822 212.096 16.551 205.567 14.962 200.239 C 14.67 199.26 15.155 197.109 16.132 197.406 C 19.999 198.582 35.021 212.812 39.706 216.115 C 59.403 230.002 78.431 240.725 101.947 247.384 C 115.019 251.086 123.264 250.416 136.187 249.077 C 139.013 248.784 141.841 248.504 144.665 248.191 C 144.747 248.182 150.205 247.55 150.023 246.545 C 147.282 231.392 139.634 217.549 134.762 202.941 C 132.715 196.803 132.494 189.247 131.757 182.826 C 127.402 144.87 135.941 108.303 148.227 72.502 C 153.306 57.703 163.453 32.957 174.588 21.177 C 175.29 20.434 177.591 21.608 177.538 21.928 Z" style="" transform="matrix(0.887276, 0.461238, -0.461238, 0.887276, 143.142401, -87.138908)">
      <title>star</title>
    </path>
    <path d="M 102.567 -17.092 L 307.626 -51.585 L 337.098 123.629 L 309.565 128.26 C 271.373 109.507 224.368 108.324 182.27 132.633 C 171.763 138.7 162.268 146.057 153.937 154.438 L 132.04 158.121 Z" style="fill: rgb(255, 255, 255);">
      <title>cover</title>
    </path>
  </g>
  <path d="M 36.519 245.752 C 36.57 245.84 36.618 245.926 36.667 246.008 L 44.994 254.208 C 51.427 260.548 59.821 268.181 63.635 271.18 C 75.35 280.366 91.618 291.428 92.398 290.977 C 92.918 290.677 94.579 291.452 96.335 292.692 C 99.179 294.74 106.313 297.751 113.931 300.392 C 115.145 300.427 116.334 300.844 116.94 301.407 C 122.019 303.073 127.094 304.501 131.062 305.303 C 138.431 306.242 147.199 306.743 153.373 306.355 C 156.157 305.942 159.306 305.289 162.085 304.575 C 163.805 304.097 165.57 303.55 167.404 302.935 C 168.86 302.366 169.724 301.84 169.621 301.45 C 169.46 300.854 170.033 300.68 170.895 301.147 C 171.211 300.771 171.812 300.493 172.506 300.413 C 172.507 300.39 172.509 300.368 172.51 300.345 C 172.497 299.47 173.132 298.971 173.911 299.421 C 174.164 299.566 174.401 299.613 174.608 299.575 C 174.147 299.171 173.6 298.709 172.986 298.206 L 172.351 297.868 C 166.734 295.045 153.051 283.355 146.203 275.695 C 137.761 266.181 123.686 241.198 119.175 227.681 C 115.434 215.797 110.668 186.826 110.765 174.983 C 110.787 168.434 111.368 161.043 112.404 153.299 C 112.975 147.434 113.583 142.694 113.946 142.068 C 114.095 141.81 114.237 141.466 114.366 141.067 C 114.526 140.2 114.692 139.335 114.861 138.468 C 114.89 138.116 114.903 137.761 114.897 137.416 C 114.94 132.24 123.031 105.016 127.961 93.473 C 135.523 76.171 145.251 57.52 146.422 58.196 C 146.548 58.267 146.596 58.58 146.574 59.08 L 147.466 57.582 L 146.32 61.857 L 147.959 58.736 L 147.21 61.621 C 147.65 61.526 147.54 61.967 146.938 63 C 146.885 63.093 146.831 63.181 146.781 63.27 L 143.847 74.563 C 141.574 83.305 139.16 94.394 138.468 99.194 C 136.373 113.932 134.927 133.552 135.706 134.002 C 136.227 134.302 136.386 136.128 136.191 138.269 C 135.838 141.753 136.794 149.422 138.315 157.333 C 138.902 158.412 139.138 159.669 138.947 160.478 C 140.036 165.668 141.323 170.734 142.602 174.56 C 145.47 181.42 149.43 189.293 152.863 194.466 C 154.626 196.688 156.785 199.112 158.81 201.177 C 160.07 202.412 161.411 203.653 162.843 204.918 C 164.075 205.905 164.972 206.398 165.258 206.112 C 165.693 205.676 166.131 206.082 166.158 207.063 C 166.642 207.148 167.183 207.531 167.598 208.092 C 167.618 208.084 167.639 208.073 167.66 208.062 C 168.411 207.612 169.161 207.912 169.161 208.814 C 169.161 209.103 169.239 209.331 169.374 209.491 C 169.494 208.888 169.621 208.182 169.752 207.394 L 169.725 206.688 C 169.362 200.411 172.644 182.717 175.854 172.956 C 179.872 160.889 194.471 136.206 203.921 125.541 C 212.342 116.362 235.048 97.749 245.354 91.91 C 251.02 88.665 257.69 85.479 264.892 82.513 C 270.285 80.061 274.722 78.205 275.449 78.205 C 275.749 78.205 276.125 78.156 276.54 78.064 C 277.36 77.777 278.182 77.489 279.007 77.207 C 279.334 77.052 279.652 76.885 279.952 76.704 C 284.456 74.153 312.079 67.547 324.54 66.046 C 343.305 63.944 364.322 63.042 364.322 64.394 C 364.322 64.539 364.077 64.737 363.635 64.967 L 365.367 64.991 L 361.06 66.145 L 364.618 66.002 L 361.748 66.794 C 362.05 67.128 361.612 67.254 360.417 67.249 C 360.31 67.249 360.206 67.248 360.104 67.248 L 348.855 70.355 C 340.148 72.757 329.339 76.21 324.835 78.012 C 311.024 83.566 293.309 92.123 293.309 93.024 C 293.309 93.625 291.808 94.676 289.856 95.576 C 286.66 97.015 280.487 101.685 274.392 106.963 C 273.754 107.996 272.799 108.816 272.01 109.06 C 268.029 112.624 264.258 116.302 261.578 119.338 C 257.093 125.23 252.291 132.546 249.536 138.081 C 248.516 140.657 247.516 143.66 246.747 146.398 C 246.278 148.198 245.85 150.077 245.449 152.059 C 245.225 153.571 245.252 154.559 245.637 154.66 C 246.235 154.821 246.097 155.405 245.258 155.92 C 245.425 156.381 245.364 157.038 245.088 157.676 C 245.108 157.69 245.127 157.703 245.148 157.717 C 245.913 158.142 246.029 158.942 245.249 159.393 C 244.994 159.539 244.836 159.723 244.765 159.924 C 245.348 159.726 246.024 159.483 246.768 159.202 L 247.376 158.822 C 252.631 155.369 269.594 149.364 279.652 147.262 C 292.113 144.71 320.786 145.01 334.747 147.863 C 346.908 150.565 374.381 160.924 384.589 166.928 C 390.23 170.214 396.321 174.394 402.49 179.146 C 407.312 182.591 411.139 185.508 411.503 186.139 C 411.654 186.398 411.883 186.697 412.17 187.012 C 412.83 187.578 413.491 188.148 414.15 188.724 C 414.446 188.928 414.751 189.119 415.055 189.288 C 419.517 191.912 439.05 212.532 446.579 222.572 C 457.782 237.773 469.072 255.525 467.9 256.199 C 467.774 256.273 467.475 256.158 467.049 255.883 L 467.903 257.41 L 464.764 254.271 L 466.659 257.268 L 464.538 255.181 C 464.398 255.599 464.072 255.283 463.482 254.249 C 463.433 254.162 463.384 254.08 463.338 253.999 L 455.006 245.793 C 448.573 239.453 440.179 231.82 436.365 228.821 C 424.65 219.635 408.382 208.573 407.602 209.024 C 407.082 209.324 405.421 208.549 403.665 207.309 C 400.822 205.259 393.69 202.25 386.072 199.609 C 384.857 199.574 383.668 199.156 383.061 198.594 C 377.981 196.928 372.906 195.5 368.938 194.698 C 361.573 193.759 352.807 193.258 346.633 193.646 C 343.843 194.059 340.684 194.714 337.899 195.431 C 336.187 195.907 334.43 196.451 332.606 197.063 C 331.144 197.635 330.274 198.162 330.379 198.553 C 330.539 199.147 329.967 199.321 329.105 198.854 C 328.789 199.232 328.188 199.51 327.493 199.59 C 327.491 199.611 327.49 199.633 327.488 199.656 C 327.502 200.531 326.868 201.03 326.087 200.58 C 325.836 200.436 325.599 200.389 325.392 200.426 C 325.855 200.83 326.401 201.291 327.015 201.795 L 327.65 202.133 C 333.268 204.958 346.95 216.646 353.8 224.308 C 362.24 233.822 376.317 258.805 380.827 272.322 C 384.566 284.204 389.333 313.175 389.237 325.018 C 389.215 331.568 388.634 338.96 387.598 346.707 C 387.025 352.57 386.416 357.307 386.054 357.933 C 385.907 358.188 385.765 358.528 385.638 358.924 C 385.476 359.794 385.31 360.668 385.138 361.542 C 385.11 361.892 385.097 362.242 385.103 362.583 C 385.062 367.76 376.971 394.985 372.041 406.526 C 364.478 423.83 354.749 442.481 353.579 441.805 C 353.453 441.734 353.406 441.421 353.426 440.923 L 352.536 442.419 L 353.683 438.141 L 352.04 441.267 L 352.79 438.38 C 352.351 438.475 352.461 438.033 353.063 437.001 C 353.117 436.91 353.168 436.821 353.218 436.736 L 356.152 425.438 C 358.426 416.697 360.839 405.609 361.532 400.808 C 363.627 386.069 365.074 366.449 364.294 365.999 C 363.774 365.699 363.615 363.873 363.81 361.732 C 364.163 358.248 363.207 350.579 361.686 342.668 C 361.099 341.589 360.864 340.334 361.054 339.523 C 359.965 334.332 358.678 329.264 357.398 325.438 C 354.53 318.58 350.57 310.705 347.137 305.534 C 345.379 303.318 343.227 300.901 341.206 298.841 C 339.942 297.601 338.597 296.355 337.16 295.085 C 335.928 294.097 335.03 293.603 334.744 293.89 C 334.308 294.325 333.871 293.919 333.844 292.938 C 333.359 292.853 332.819 292.47 332.402 291.909 C 332.383 291.917 332.363 291.928 332.341 291.939 C 331.591 292.389 330.84 292.089 330.84 291.188 C 330.84 290.898 330.762 290.67 330.626 290.51 C 330.507 291.113 330.381 291.821 330.252 292.608 L 330.275 293.313 C 330.637 299.59 327.357 317.284 324.148 327.045 C 320.128 339.112 305.531 363.794 296.08 374.458 C 287.66 383.639 264.952 402.252 254.647 408.091 C 248.989 411.33 242.332 414.51 235.142 417.474 C 229.735 419.933 225.281 421.796 224.553 421.796 C 224.249 421.796 223.871 421.845 223.449 421.938 C 222.639 422.224 221.823 422.509 221.006 422.788 C 220.676 422.944 220.354 423.113 220.049 423.297 C 215.545 425.848 187.922 432.454 175.462 433.955 C 156.696 436.057 135.679 436.959 135.679 435.607 C 135.679 435.462 135.926 435.263 136.371 435.032 L 134.633 435.01 L 138.936 433.856 L 135.383 433.999 L 138.252 433.207 C 137.949 432.872 138.386 432.746 139.582 432.752 C 139.69 432.752 139.794 432.753 139.896 432.753 L 151.147 429.646 C 159.854 427.244 170.663 423.791 175.166 421.989 C 188.977 416.435 206.692 407.878 206.692 406.977 C 206.692 406.376 208.193 405.326 210.145 404.425 C 213.34 402.986 219.509 398.32 225.603 393.044 C 226.241 392.007 227.201 391.184 227.992 390.941 C 231.968 387.381 235.735 383.708 238.413 380.675 C 242.905 374.772 247.72 367.44 250.474 361.898 C 251.491 359.33 252.484 356.341 253.251 353.614 C 253.722 351.812 254.151 349.928 254.551 347.942 C 254.777 346.429 254.75 345.442 254.364 345.339 C 253.766 345.18 253.905 344.597 254.742 344.082 C 254.575 343.621 254.635 342.963 254.912 342.323 C 254.892 342.309 254.873 342.298 254.854 342.284 C 254.088 341.859 253.972 341.059 254.753 340.608 C 255.008 340.462 255.167 340.277 255.236 340.076 C 254.655 340.274 253.983 340.517 253.239 340.796 L 252.626 341.179 C 247.371 344.632 230.407 350.637 220.349 352.739 C 207.889 355.291 179.215 354.991 165.253 352.138 C 153.094 349.436 125.621 339.077 115.412 333.073 C 109.782 329.795 103.704 325.623 97.549 320.885 C 92.711 317.426 88.863 314.496 88.498 313.864 C 88.346 313.601 88.115 313.299 87.824 312.982 C 87.17 312.421 86.515 311.856 85.862 311.288 C 85.564 311.079 85.256 310.885 84.946 310.714 C 80.483 308.09 60.952 287.47 53.421 277.43 C 42.218 262.228 30.928 244.478 32.1 243.803 C 32.227 243.729 32.526 243.846 32.956 244.122 L 32.098 242.591 L 35.233 245.725 L 33.341 242.734 L 35.462 244.822 C 35.602 244.4 35.928 244.717 36.519 245.752 Z" fill="#000000" stroke="none" style="visibility: hidden;" transform="matrix(1, -0.000029, 0.000029, 1, -0.00722, 0.00722)"/>
  <circle style="filter: url(#drop-shadow-filter-2);" cx="250" cy="250" r="195.454">
    <title>black</title>
  </circle>
  <circle style="fill: url(#gradient-0); filter: url(#drop-shadow-filter-3);" cx="250" cy="250" r="135.583"/>
  <circle style="fill: url(#gradient-1); filter: url(#filter-2);" cx="250" cy="250" r="135.583"/>
  <circle style="filter: url(#filter-1); fill: rgb(255, 255, 255);" cx="250" cy="250" r="135.583"/>
  <path d="M 425 274.978 L 428.028906014 372.618647858 L 437.18274218 275.360858097 L 434.074764334 372.999021022 L 449.317404643 276.507921422 L 440.084808705 373.758266192 L 461.356097419 278.414663039 L 446.035320227 374.893386974 L 473.251309287 281.073557912 L 451.902814951 376.399903563 L 484.956095283 284.474112595 L 457.664136555 378.271870429 L 496.424261961 288.602906655 L 463.296547734 380.501899772 L 507.610549708 293.443645626 L 468.777819936 383.081190685 L 518.470811357 298.977225325 L 474.086321083 385.999563887 L 528.962186415 305.181807238 L 479.201100945 389.245501891 L 539.04327022 312.032904717 L 484.101973825 392.806194462 L 548.674277339 319.50347961 L 488.769598215 396.667589174 L 557.817198586 327.56404897 L 493.185553134 400.814446866 L 566.43595103 336.182801414 L 497.332410826 405.230401785 L 574.49652039 345.325722661 L 501.193805538 409.898026175 L 581.967095283 354.95672978 L 504.754498109 414.798899055 L 588.818192762 365.037813585 L 508.000436113 419.913678917 L 595.022774675 375.529188643 L 510.918809315 425.222180064 L 600.556354374 386.389450292 L 513.498100228 430.703452266 L 605.397093345 397.575738039 L 515.728129571 436.335863445 L 609.525887405 409.043904717 L 517.600096437 442.097185049 L 612.926442088 420.748690713 L 519.106613026 447.964679773 L 615.585336961 432.643902581 L 520.241733808 453.915191295 L 617.492078578 444.682595357 L 521.000978978 459.925235666 L 618.639141903 456.81725782 L 521.381352142 465.971093986 L 619.022 469 L 521.381352142 472.028906014 L 618.639141903 481.18274218 L 521.000978978 478.074764334 L 617.492078578 493.317404643 L 520.241733808 484.084808705 L 615.585336961 505.356097419 L 519.106613026 490.035320227 L 612.926442088 517.251309287 L 517.600096437 495.902814951 L 609.525887405 528.956095283 L 515.728129571 501.664136555 L 605.397093345 540.424261961 L 513.498100228 507.296547734 L 600.556354374 551.610549708 L 510.918809315 512.777819936 L 595.022774675 562.470811357 L 508.000436113 518.086321083 L 588.818192762 572.962186415 L 504.754498109 523.201100945 L 581.967095283 583.04327022 L 501.193805538 528.101973825 L 574.49652039 592.674277339 L 497.332410826 532.769598215 L 566.43595103 601.817198586 L 493.185553134 537.185553134 L 557.817198586 610.43595103 L 488.769598215 541.332410826 L 548.674277339 618.49652039 L 484.101973825 545.193805538 L 539.04327022 625.967095283 L 479.201100945 548.754498109 L 528.962186415 632.818192762 L 474.086321083 552.000436113 L 518.470811357 639.022774675 L 468.777819936 554.918809315 L 507.610549708 644.556354374 L 463.296547734 557.498100228 L 496.424261961 649.397093345 L 457.664136555 559.728129571 L 484.956095283 653.525887405 L 451.902814951 561.600096437 L 473.251309287 656.926442088 L 446.035320227 563.106613026 L 461.356097419 659.585336961 L 440.084808705 564.241733808 L 449.317404643 661.492078578 L 434.074764334 565.000978978 L 437.18274218 662.639141903 L 428.028906014 565.381352142 L 425 663.022 L 421.971093986 565.381352142 L 412.81725782 662.639141903 L 415.925235666 565.000978978 L 400.682595357 661.492078578 L 409.915191295 564.241733808 L 388.643902581 659.585336961 L 403.964679773 563.106613026 L 376.748690713 656.926442088 L 398.097185049 561.600096437 L 365.043904717 653.525887405 L 392.335863445 559.728129571 L 353.575738039 649.397093345 L 386.703452266 557.498100228 L 342.389450292 644.556354374 L 381.222180064 554.918809315 L 331.529188643 639.022774675 L 375.913678917 552.000436113 L 321.037813585 632.818192762 L 370.798899055 548.754498109 L 310.95672978 625.967095283 L 365.898026175 545.193805538 L 301.325722661 618.49652039 L 361.230401785 541.332410826 L 292.182801414 610.43595103 L 356.814446866 537.185553134 L 283.56404897 601.817198586 L 352.667589174 532.769598215 L 275.50347961 592.674277339 L 348.806194462 528.101973825 L 268.032904717 583.04327022 L 345.245501891 523.201100945 L 261.181807238 572.962186415 L 341.999563887 518.086321083 L 254.977225325 562.470811357 L 339.081190685 512.777819936 L 249.443645626 551.610549708 L 336.501899772 507.296547734 L 244.602906655 540.424261961 L 334.271870429 501.664136555 L 240.474112595 528.956095283 L 332.399903563 495.902814951 L 237.073557912 517.251309287 L 330.893386974 490.035320227 L 234.414663039 505.356097419 L 329.758266192 484.084808705 L 232.507921422 493.317404643 L 328.999021022 478.074764334 L 231.360858097 481.18274218 L 328.618647858 472.028906014 L 230.978 469 L 328.618647858 465.971093986 L 231.360858097 456.81725782 L 328.999021022 459.925235666 L 232.507921422 444.682595357 L 329.758266192 453.915191295 L 234.414663039 432.643902581 L 330.893386974 447.964679773 L 237.073557912 420.748690713 L 332.399903563 442.097185049 L 240.474112595 409.043904717 L 334.271870429 436.335863445 L 244.602906655 397.575738039 L 336.501899772 430.703452266 L 249.443645626 386.389450292 L 339.081190685 425.222180064 L 254.977225325 375.529188643 L 341.999563887 419.913678917 L 261.181807238 365.037813585 L 345.245501891 414.798899055 L 268.032904717 354.95672978 L 348.806194462 409.898026175 L 275.50347961 345.325722661 L 352.667589174 405.230401785 L 283.56404897 336.182801414 L 356.814446866 400.814446866 L 292.182801414 327.56404897 L 361.230401785 396.667589174 L 301.325722661 319.50347961 L 365.898026175 392.806194462 L 310.95672978 312.032904717 L 370.798899055 389.245501891 L 321.037813585 305.181807238 L 375.913678917 385.999563887 L 331.529188643 298.977225325 L 381.222180064 383.081190685 L 342.389450292 293.443645626 L 386.703452266 380.501899772 L 353.575738039 288.602906655 L 392.335863445 378.271870429 L 365.043904717 284.474112595 L 398.097185049 376.399903563 L 376.748690713 281.073557912 L 403.964679773 374.893386974 L 388.643902581 278.414663039 L 409.915191295 373.758266192 L 400.682595357 276.507921422 L 415.925235666 372.999021022 L 412.81725782 275.360858097 L 421.971093986 372.618647858 Z" style="fill: rgb(255, 255, 255); mix-blend-mode: overlay;" transform="matrix(1, 0.000057, -0.000057, 1, -174.973251, -219.024215)" bx:shape="star 425 469 194.022 194.022 0.497 100 1@c20f9c3e"/>
  <path d="M 500 376 m -135.478 0 a 135.478 135.478 0 1 0 270.956 0 a 135.478 135.478 0 1 0 -270.956 0 Z M 500 376 m -97.773 0 a 97.773 97.773 0 0 1 195.546 0 a 97.773 97.773 0 0 1 -195.546 0 Z" style="filter: url(#drop-shadow-filter-0); visibility: hidden;" transform="matrix(1, -0.000065, 0.000065, 1, -250.007526, -126.011126)" bx:shape="ring 500 376 97.773 97.773 135.478 135.478 1@cb2dd3d3"/>
  <g transform="matrix(1, 0, 0, 1, 0.004433, -24)" style="">
    <path d="M 272.016 194.959 L 272.016 353.004 C 258.021 356.965 242.847 357.263 227.975 353.044 L 227.975 194.994 C 241.97 191.035 257.144 190.738 272.016 194.959 Z" style="filter: none; visibility: hidden;">
      <title>vertical straight</title>
    </path>
    <path d="M 234.281 180 C 234.281 208.47 227.708 235.406 215.995 259.371 C 238.86 269.292 263.215 268.31 283.988 259.356 C 272.281 235.394 265.71 208.465 265.71 180 C 265.71 151.53 272.283 124.594 283.996 100.629 C 261.131 90.708 236.776 91.69 216.003 100.644 C 227.71 124.606 234.281 151.535 234.281 180 Z" style="">
      <title>vertical curvy</title>
    </path>
    <path d="M 217.708 255.373 C 228.831 232.615 235.073 207.036 235.073 180 C 235.073 144.362 224.227 111.257 205.655 83.807 C 219.901 80.499 234.744 78.75 249.996 78.75 C 265.248 78.75 280.091 80.499 294.336 83.807 C 275.764 111.257 264.918 144.362 264.918 180 C 264.918 207.031 271.158 232.605 282.276 255.359 C 262.549 263.863 239.421 264.794 217.708 255.373 Z" style=""/>
    <g style="visibility: hidden;" transform="matrix(1, 0, 0, 1, -0.000015, -93.999977)">
      <title>original</title>
      <rect x="227.979" y="184.756" width="44.041" height="178.485" style=""/>
      <path d="M 500 376 m -102.414 0 a 102.414 102.414 0 1 0 204.828 0 a 102.414 102.414 0 1 0 -204.828 0 Z M 500 376 m -81.97 0 a 81.97 81.97 0 0 1 163.94 0 a 81.97 81.97 0 0 1 -163.94 0 Z" style="fill: rgb(255, 255, 255);" transform="matrix(1, -0.000065, 0.000065, 1, -250.028869, -101.967498)" bx:shape="ring 500 376 81.97 81.97 102.414 102.414 1@4a51200f"/>
      <circle style="fill: rgb(216, 216, 216);" cx="63.192" cy="274" r="171.881"/>
      <circle style="fill: rgb(216, 216, 216);" cx="436.799" cy="274" r="171.881"/>
    </g>
    <path d="M 209.072 84.032 C 232.998 74.39 264.482 73.491 291.111 84.1 L 308.475 91.575 L 302.931 102.891 L 300.136 108.594 C 289.105 130.678 283.71 153.631 283.71 180 C 283.71 206.363 289.129 229.364 300.153 251.438 L 308.468 268.428 L 306.538 269.258 L 297.851 272.993 L 293.984 274.653 L 293.017 275.068 L 290.92 275.968 C 266.992 285.611 235.509 286.509 208.879 275.9 L 191.516 268.425 L 197.06 257.109 L 199.855 251.406 C 210.886 229.322 216.281 206.369 216.281 180 C 216.281 153.637 210.862 130.636 199.838 108.562 L 191.523 91.572 L 194.418 90.327 L 202.141 87.007 L 206.008 85.347 L 206.975 84.932 Z" style="visibility: hidden;">
      <title>bulged curvy</title>
    </path>
  </g>
  <g style="filter: url(#drop-shadow-filter-1); visibility: hidden;" transform="matrix(0.965926, 0.258819, -0.258819, 0.965926, 73.223305, -56.186211)">
    <title>stars</title>
    <path d="M 550 125.678 L 555.248 140.776 L 571.229 141.102 L 558.492 150.759 L 563.121 166.059 L 550 156.929 L 536.879 166.059 L 541.508 150.759 L 528.771 141.102 L 544.752 140.776 Z" style="filter: none; fill: rgb(255, 255, 255);" transform="matrix(1, 0.000069, -0.000069, 1, -299.989928, -91.986763)" bx:shape="star 550 148 22.322 22.322 0.4 5 1@16a801bb"/>
    <path d="M 550 125.678 L 555.248 140.776 L 571.229 141.102 L 558.492 150.759 L 563.121 166.059 L 550 156.929 L 536.879 166.059 L 541.508 150.759 L 528.771 141.102 L 544.752 140.776 Z" style="filter: none; fill: rgb(255, 255, 255);" transform="matrix(1, -0.000069, -0.000069, -1, -299.989928, 591.986755)" bx:shape="star 550 148 22.322 22.322 0.4 5 1@16a801bb"/>
    <path d="M 550 125.678 L 555.248 140.776 L 571.229 141.102 L 558.492 150.759 L 563.121 166.059 L 550 156.929 L 536.879 166.059 L 541.508 150.759 L 528.771 141.102 L 544.752 140.776 Z" style="filter: none; fill: rgb(255, 255, 255);" transform="matrix(0.49994, 0.86606, -0.86606, 0.49994, 271.174179, -397.298694)" bx:shape="star 550 148 22.322 22.322 0.4 5 1@16a801bb"/>
    <path d="M 550 125.678 L 555.248 140.776 L 571.229 141.102 L 558.492 150.759 L 563.121 166.059 L 550 156.929 L 536.879 166.059 L 541.508 150.759 L 528.771 141.102 L 544.752 140.776 Z" style="filter: none; fill: rgb(255, 255, 255);" transform="matrix(0.50006, 0.865991, 0.865991, -0.50006, -321.164099, -55.311891)" bx:shape="star 550 148 22.322 22.322 0.4 5 1@16a801bb"/>
    <path d="M 550 125.678 L 555.248 140.776 L 571.229 141.102 L 558.492 150.759 L 563.121 166.059 L 550 156.929 L 536.879 166.059 L 541.508 150.759 L 528.771 141.102 L 544.752 140.776 Z" style="filter: none; fill: rgb(255, 255, 255);" transform="matrix(0.865991, 0.50006, -0.50006, 0.865991, -55.311834, -321.164251)" bx:shape="star 550 148 22.322 22.322 0.4 5 1@16a801bb"/>
    <path d="M 550 125.678 L 555.248 140.776 L 571.229 141.102 L 558.492 150.759 L 563.121 166.059 L 550 156.929 L 536.879 166.059 L 541.508 150.759 L 528.771 141.102 L 544.752 140.776 Z" style="filter: none; fill: rgb(255, 255, 255);" transform="matrix(0.86606, 0.49994, 0.49994, -0.86606, -397.298633, 271.174027)" bx:shape="star 550 148 22.322 22.322 0.4 5 1@16a801bb"/>
    <path d="M 550 125.678 L 555.248 140.776 L 571.229 141.102 L 558.492 150.759 L 563.121 166.059 L 550 156.929 L 536.879 166.059 L 541.508 150.759 L 528.771 141.102 L 544.752 140.776 Z" style="filter: none; fill: rgb(255, 255, 255);" transform="matrix(-0.000069, 1, -1, -0.000069, 591.986755, -299.989989)" bx:shape="star 550 148 22.322 22.322 0.4 5 1@16a801bb"/>
    <path d="M 550 125.678 L 555.248 140.776 L 571.229 141.102 L 558.492 150.759 L 563.121 166.059 L 550 156.929 L 536.879 166.059 L 541.508 150.759 L 528.771 141.102 L 544.752 140.776 Z" style="filter: none; fill: rgb(255, 255, 255);" transform="matrix(0.000069, 1, 1, -0.000069, -91.986786, -299.989989)" bx:shape="star 550 148 22.322 22.322 0.4 5 1@16a801bb"/>
    <path d="M 550 125.678 L 555.248 140.776 L 571.229 141.102 L 558.492 150.759 L 563.121 166.059 L 550 156.929 L 536.879 166.059 L 541.508 150.759 L 528.771 141.102 L 544.752 140.776 Z" style="filter: none; fill: rgb(255, 255, 255);" transform="matrix(-0.50006, 0.865991, -0.865991, -0.50006, 821.164251, -55.311941)" bx:shape="star 550 148 22.322 22.322 0.4 5 1@16a801bb"/>
    <path d="M 550 125.678 L 555.248 140.776 L 571.229 141.102 L 558.492 150.759 L 563.121 166.059 L 550 156.929 L 536.879 166.059 L 541.508 150.759 L 528.771 141.102 L 544.752 140.776 Z" style="filter: none; fill: rgb(255, 255, 255);" transform="matrix(-0.49994, 0.86606, 0.86606, 0.49994, 228.826004, -397.298755)" bx:shape="star 550 148 22.322 22.322 0.4 5 1@16a801bb"/>
    <path d="M 550 125.678 L 555.248 140.776 L 571.229 141.102 L 558.492 150.759 L 563.121 166.059 L 550 156.929 L 536.879 166.059 L 541.508 150.759 L 528.771 141.102 L 544.752 140.776 Z" style="filter: none; fill: rgb(255, 255, 255);" transform="matrix(-0.86606, 0.49994, -0.49994, -0.86606, 897.298633, 271.174057)" bx:shape="star 550 148 22.322 22.322 0.4 5 1@16a801bb"/>
    <path d="M 550 125.678 L 555.248 140.776 L 571.229 141.102 L 558.492 150.759 L 563.121 166.059 L 550 156.929 L 536.879 166.059 L 541.508 150.759 L 528.771 141.102 L 544.752 140.776 Z" style="filter: none; fill: rgb(255, 255, 255);" transform="matrix(-0.865991, 0.50006, 0.50006, 0.865991, 555.311834, -321.164221)" bx:shape="star 550 148 22.322 22.322 0.4 5 1@16a801bb"/>
  </g>
  <path d="M 182.27 132.633 C 185.863 130.558 189.492 128.669 193.148 126.961 C 199.243 130.542 203.984 134.357 207.163 138.369 C 213.755 146.691 212.924 154.973 205.863 162.717 C 174.892 178.436 152.241 210.276 152.243 249.963 C 152.246 284.894 170.883 317.17 201.135 334.633 C 266.32 372.262 347.794 325.216 347.789 249.95 C 347.787 215.019 329.15 182.743 298.897 165.279 C 297.306 164.361 295.705 163.493 294.096 162.674 C 287.07 154.942 286.25 146.676 292.825 138.369 C 296.002 134.356 300.742 130.54 306.838 126.958 C 351.965 147.903 385.491 193.118 385.494 249.948 C 385.498 298.349 359.679 343.076 317.763 367.279 C 227.448 419.431 114.545 354.256 114.538 249.965 C 114.535 201.564 140.354 156.837 182.27 132.633 Z" style="filter: none;"/>
  <path d="M 182.27 132.633 C 185.863 130.558 189.492 128.669 193.148 126.961 C 199.243 130.542 203.984 134.357 207.163 138.369 C 213.755 146.691 212.924 154.973 205.863 162.717 C 174.892 178.436 152.241 210.276 152.243 249.963 C 152.246 284.894 170.883 317.17 201.135 334.633 C 266.32 372.262 347.794 325.216 347.789 249.95 C 347.787 215.019 329.15 182.743 298.897 165.279 C 297.306 164.361 295.705 163.493 294.096 162.674 C 287.07 154.942 286.25 146.676 292.825 138.369 C 296.002 134.356 300.742 130.54 306.838 126.958 C 351.965 147.903 385.491 193.118 385.494 249.948 C 385.498 298.349 359.679 343.076 317.763 367.279 C 227.448 419.431 114.545 354.256 114.538 249.965 C 114.535 201.564 140.354 156.837 182.27 132.633 Z" style="filter: none;"/>
</svg>